<?xml version="1.0" encoding="UTF-8"?>
<svg id="Layer_2" data-name="Layer 2" xmlns="http://www.w3.org/2000/svg" viewBox="0 0 806 195.92">
  <defs>
    <style>
      .cls-1 {
        fill: #232838;
      }
    </style>
  </defs>
  <g id="Layer_1-2" data-name="Layer 1">
    <g>
      <path class="cls-1" d="M233.07,52.69v91.03h-25.6V60.49c0-7.8-1.44-14.44-4.38-19.84-2.88-5.4-6.84-9.63-11.86-12.67-4.97-3.05-10.85-4.55-17.58-4.55s-12.39,1.55-17.58,4.55c-5.18,3.04-9.24,7.32-12.23,12.78-2.99,5.45-4.49,12.03-4.49,19.68v83.23h-25.59V60.44c0-7.81-1.45-14.44-4.39-19.84-2.93-5.4-6.83-9.63-11.86-12.68-4.97-3.05-10.84-4.54-17.58-4.54s-12.39,1.55-17.58,4.54c-5.18,3.05-9.24,7.33-12.23,12.78-2.99,5.46-4.49,12.04-4.49,19.69v83.22h-25.11V25.35H0V3.15h44.94s.32.01.32.01v17.33c3.49-5.58,8.14-10.06,13.89-13.43,7.96-4.7,16.94-7.06,26.93-7.06,11.43,0,21.75,3.05,30.88,9.15,6.62,4.42,11.75,9.82,15.39,16.24,3.83-7.07,9.11-12.69,15.82-16.88,9.08-5.67,19.12-8.51,30.18-8.51,10.16,0,19.35,2.25,27.63,6.79,8.23,4.55,14.85,10.81,19.71,18.78,4.92,8.02,7.38,17.06,7.38,27.12Z"/>
      <path class="cls-1" d="M384.87,42.47c-3.21-8.07-7.75-15.29-13.63-21.66-5.87-6.36-13.03-11.39-21.48-15.14C341.32,1.93,331.65.06,320.75.06c-13.41,0-25.54,3.15-36.33,9.52-10.8,6.31-19.35,14.98-25.6,25.94-6.25,10.91-9.4,23.64-9.4,37.55s3.15,26.47,9.51,37.7c6.36,11.24,15.07,20.06,26.13,26.48,11.06,6.42,23.67,9.63,37.83,9.63l.05.1c10.15,0,19.34-1.6,27.62-4.7,8.23-3.16,15.39-7.38,21.48-12.68,6.1-5.29,10.58-11.18,13.47-17.59l-21.21-10.43c-4.22,6.79-9.62,12.35-16.35,16.68-6.74,4.34-15.02,6.53-24.8,6.53-8.87,0-17.09-2.09-24.63-6.37-7.53-4.28-13.36-10.27-17.42-18.02-3.07-5.87-4.8-12.44-5.13-19.74h112.26c.38-2.08.7-4.33.97-6.63.26-2.3.42-4.44.42-6.36,0-8.72-1.6-17.12-4.75-25.2ZM280.84,45.84c3.9-7.75,9.35-13.69,16.45-17.86,7.06-4.17,14.86-6.26,23.41-6.26s16.13,2.09,22.87,6.26c6.67,4.17,11.75,9.84,15.22,16.95,2.19,4.58,3.37,9.53,3.51,14.87h-85.78c.74-5.08,2.19-9.73,4.32-13.96Z"/>
      <path class="cls-1" d="M481.52,1.61v22.95h-12.77c-10.36,0-18.7,3.1-25.06,9.25-6.35,6.15-9.51,14.92-9.51,26.21v83.76h-25.32l.05-.06V3.16h24.74v16.89c3.27-5.39,7.64-9.57,13.04-12.56,7.05-3.9,15.71-5.88,25.86-5.88h8.97Z"/>
      <path class="cls-1" d="M610.87,3.15h0s-2.23.01-2.23.01v19.8c-5.04-6.27-11.42-11.42-19.08-15.47-9.4-4.97-20.19-7.43-32.38-7.43-13.78,0-26.18,3.21-37.13,9.63-10.95,6.41-19.61,15.19-25.97,26.2-6.36,11.08-9.51,24.02-9.51,37.71s3.15,26.16,9.51,37.28c6.31,11.18,15.02,19.95,25.97,26.37,10.95,6.42,23.35,9.63,37.13,9.63,11.97,0,22.82-2.52,32.54-7.54,7.35-3.82,13.41-8.89,18.12-15.14v71.72h25.54V25.35h22.42V3.15h-44.93ZM601.48,99.01c-4.28,7.54-10.05,13.53-17.31,17.86-7.21,4.32-15.47,6.52-24.69,6.53h-.05c-9.28-.01-17.48-2.21-24.74-6.53-7.27-4.33-12.98-10.32-17.15-17.86-4.17-7.6-6.25-15.73-6.25-25.46s2.08-18.29,6.25-25.67c4.17-7.39,9.94-13.32,17.26-17.76s15.38-6.63,24.63-6.63,17.47,2.19,24.74,6.52c7.26,4.33,13.03,10.32,17.31,17.87,4.27,7.54,6.41,16.25,6.41,25.67s-2.14,17.92-6.41,25.46Z"/>
      <path class="cls-1" d="M730.56,146.88c-14.16,0-26.93-3.15-38.36-9.52-11.43-6.36-20.52-15.08-27.2-26.21-6.73-11.12-10.05-23.75-10.05-37.81s3.31-26.58,9.94-37.55c6.63-10.96,15.66-19.63,27.09-26.1C703.41,3.27,716.29.06,730.61.06s26.93,3.16,38.36,9.52c11.43,6.36,20.46,14.98,27.09,25.94,6.62,10.96,9.94,23.59,9.94,37.81s-3.47,26.9-10.37,37.97c-6.89,11.07-16.03,19.74-27.36,26.1-11.33,6.36-23.88,9.52-37.67,9.52l-.05-.05ZM730.56,123.4c9.08,0,17.26-2.19,24.63-6.52,7.37-4.33,13.14-10.32,17.42-18.03,4.28-7.65,6.41-16.15,6.41-25.57s-2.14-18.02-6.41-25.46c-4.27-7.38-10.04-13.32-17.42-17.76-7.37-4.44-15.55-6.63-24.63-6.63s-17.58,2.19-24.9,6.63c-7.37,4.44-13.2,10.38-17.58,17.76-4.38,7.38-6.52,15.89-6.52,25.46s2.19,17.92,6.52,25.57c4.33,7.65,10.2,13.64,17.58,18.03,7.37,4.33,15.65,6.52,24.9,6.52Z"/>
    </g>
  </g>
</svg>